REM DIRINDEX 1\2,1\3
REM DIRNAME cjc143,folder01,folder02
TITLE ""
FILE "2000 phrasesTrack54.mp3" MP3
  TRACK 01 AUDIO
    TITLE "2:cjc143_2099"
    INDEX 01 00:00:00
  TRACK 02 AUDIO
    TITLE "0:"
    INDEX 01 00:00:64
  TRACK 03 AUDIO
    TITLE "2:cjc143_2100"
    INDEX 01 00:01:42
  TRACK 04 AUDIO
    TITLE "0:"
    INDEX 01 00:03:17
  TRACK 05 AUDIO
    TITLE "2:cjc143_2101"
    INDEX 01 00:03:31
  TRACK 06 AUDIO
    TITLE "0:"
    INDEX 01 00:04:66
  TRACK 07 AUDIO
    TITLE "2:cjc143_2102"
    INDEX 01 00:05:10
  TRACK 08 AUDIO
    TITLE "0:"
    INDEX 01 00:06:53
  TRACK 09 AUDIO
    TITLE "2:cjc143_2103"
    INDEX 01 00:06:63
  TRACK 10 AUDIO
    TITLE "0:"
    INDEX 01 00:08:23
  TRACK 11 AUDIO
    TITLE "2:cjc143_2104"
    INDEX 01 00:08:56
  TRACK 12 AUDIO
    TITLE "0:"
    INDEX 01 00:10:23
  TRACK 13 AUDIO
    TITLE "2:cjc143_2105"
    INDEX 01 00:10:31
  TRACK 14 AUDIO
    TITLE "0:"
    INDEX 01 00:12:05
  TRACK 15 AUDIO
    TITLE "2:cjc143_2106"
    INDEX 01 00:12:20
  TRACK 16 AUDIO
    TITLE "0:"
    INDEX 01 00:13:63
  TRACK 17 AUDIO
    TITLE "2:cjc143_2107"
    INDEX 01 00:13:71
  TRACK 18 AUDIO
    TITLE "0:"
    INDEX 01 00:15:30
  TRACK 19 AUDIO
    TITLE "2:cjc143_2108"
    INDEX 01 00:15:38
  TRACK 20 AUDIO
    TITLE "0:"
    INDEX 01 00:17:04
  TRACK 21 AUDIO
    TITLE "2:cjc143_2109"
    INDEX 01 00:17:10
  TRACK 22 AUDIO
    TITLE "0:"
    INDEX 01 00:18:50
  TRACK 23 AUDIO
    TITLE "2:cjc143_2110"
    INDEX 01 00:18:60
  TRACK 24 AUDIO
    TITLE "0:"
    INDEX 01 00:20:43
  TRACK 25 AUDIO
    TITLE "2:cjc143_2111"
    INDEX 01 00:20:55
  TRACK 26 AUDIO
    TITLE "0:"
    INDEX 01 00:22:44
  TRACK 27 AUDIO
    TITLE "2:cjc143_2112"
    INDEX 01 00:22:52
  TRACK 28 AUDIO
    TITLE "0:"
    INDEX 01 00:24:49
  TRACK 29 AUDIO
    TITLE "2:cjc143_2113"
    INDEX 01 00:24:55
  TRACK 30 AUDIO
    TITLE "0:"
    INDEX 01 00:26:44
  TRACK 31 AUDIO
    TITLE "2:cjc143_2114"
    INDEX 01 00:26:58
  TRACK 32 AUDIO
    TITLE "0:"
    INDEX 01 00:28:64
  TRACK 33 AUDIO
    TITLE "2:cjc143_2115"
    INDEX 01 00:28:70
  TRACK 34 AUDIO
    TITLE "0:"
    INDEX 01 00:30:36
  TRACK 35 AUDIO
    TITLE "2:cjc143_2116"
    INDEX 01 00:30:42
  TRACK 36 AUDIO
    TITLE "0:"
    INDEX 01 00:32:00
  TRACK 37 AUDIO
    TITLE "2:cjc143_2117"
    INDEX 01 00:32:11
  TRACK 38 AUDIO
    TITLE "0:"
    INDEX 01 00:34:12
  TRACK 39 AUDIO
    TITLE "2:cjc143_2118"
    INDEX 01 00:34:20
  TRACK 40 AUDIO
    TITLE "0:"
    INDEX 01 00:35:55
  TRACK 41 AUDIO
    TITLE "2:cjc143_2119"
    INDEX 01 00:36:44
  TRACK 42 AUDIO
    TITLE "0:"
    INDEX 01 00:38:14
  TRACK 43 AUDIO
    TITLE "2:cjc143_2120"
    INDEX 01 00:38:31
  TRACK 44 AUDIO
    TITLE "0:"
    INDEX 01 00:40:17
  TRACK 45 AUDIO
    TITLE "2:cjc143_2121"
    INDEX 01 00:40:40
  TRACK 46 AUDIO
    TITLE "0:"
    INDEX 01 00:42:12
  TRACK 47 AUDIO
    TITLE "2:cjc143_2122"
    INDEX 01 00:42:31
  TRACK 48 AUDIO
    TITLE "0:"
    INDEX 01 00:44:01
  TRACK 49 AUDIO
    TITLE "2:cjc143_2123"
    INDEX 01 00:44:09
  TRACK 50 AUDIO
    TITLE "0:"
    INDEX 01 00:45:57
  TRACK 51 AUDIO
    TITLE "2:cjc143_2124"
    INDEX 01 00:45:73
  TRACK 52 AUDIO
    TITLE "0:"
    INDEX 01 00:47:70
  TRACK 53 AUDIO
    TITLE "2:cjc143_2125"
    INDEX 01 00:48:04
  TRACK 54 AUDIO
    TITLE "0:"
    INDEX 01 00:49:74
  TRACK 55 AUDIO
    TITLE "2:cjc143_2126"
    INDEX 01 00:50:09
  TRACK 56 AUDIO
    TITLE "0:"
    INDEX 01 00:51:44
  TRACK 57 AUDIO
    TITLE "2:cjc143_2127"
    INDEX 01 00:51:58
  TRACK 58 AUDIO
    TITLE "0:"
    INDEX 01 00:53:17
  TRACK 59 AUDIO
    TITLE "2:cjc143_2128"
    INDEX 01 00:53:39
  TRACK 60 AUDIO
    TITLE "0:"
    INDEX 01 00:55:55
  TRACK 61 AUDIO
    TITLE "2:cjc143_2129"
    INDEX 01 00:55:65
  TRACK 62 AUDIO
    TITLE "0:"
    INDEX 01 00:58:24
  TRACK 63 AUDIO
    TITLE "2:cjc143_2130"
    INDEX 01 00:58:71
  TRACK 64 AUDIO
    TITLE "0:"
    INDEX 01 01:00:51
  TRACK 65 AUDIO
    TITLE "2:cjc143_2131"
    INDEX 01 01:00:68
  TRACK 66 AUDIO
    TITLE "0:"
    INDEX 01 01:02:55
  TRACK 67 AUDIO
    TITLE "2:cjc143_2132"
    INDEX 01 01:02:65
  TRACK 68 AUDIO
    TITLE "0:"
    INDEX 01 01:04:50
  TRACK 69 AUDIO
    TITLE "2:cjc143_2133"
    INDEX 01 01:04:56
  TRACK 70 AUDIO
    TITLE "0:"
    INDEX 01 01:06:28
  TRACK 71 AUDIO
    TITLE "2:cjc143_2134"
    INDEX 01 01:06:47
  TRACK 72 AUDIO
    TITLE "0:"
    INDEX 01 01:09:03
